<svg width="240" height="240" viewBox="0 0 240 240" fill="none" xmlns="http://www.w3.org/2000/svg">
<path d="M128.434 184.977C129.622 186.165 128.909 188.208 127.246 188.398C124.823 188.636 122.305 188.778 119.691 188.778C108.145 188.778 97.9767 186.26 89.2339 181.176C80.4435 176.092 73.5538 169.06 68.5647 160.079C63.5756 151.099 61.0573 140.74 61.0573 129.052V88.0459C61.0573 80.9186 66.6641 74.8842 73.7438 74.6941C81.1562 74.5041 87.1907 80.4435 87.1907 87.7609V129.004C87.1907 136.036 88.7112 142.118 91.7522 147.25C92.3224 148.2 92.94 149.151 93.5577 150.053C95.6009 152.904 98.0242 155.328 100.828 157.323L128.434 184.977Z" fill="url(#paint0_linear_1226_6846)"/>
<path d="M178.088 52.742V129.099C178.088 140.788 175.569 151.099 170.58 160.127C165.591 169.107 158.749 176.139 150.006 181.223C148.295 182.221 146.49 183.124 144.637 183.932L128.006 167.302C126.343 165.638 127.104 162.835 129.384 162.17C131.855 161.457 134.231 160.507 136.512 159.271C141.691 156.468 145.92 152.477 149.151 147.345C152.382 142.213 153.997 136.131 153.997 129.099V52.742C153.997 49.0833 155.043 46.0423 157.181 43.5716C159.271 41.1008 162.17 39.8654 165.829 39.8654C169.487 39.8654 172.433 41.1008 174.714 43.5716C176.995 46.0423 178.088 49.0833 178.088 52.742Z" fill="url(#paint1_linear_1226_6846)"/>
<path d="M74.0289 65.8087C81.193 65.8087 87.0006 60.0011 87.0006 52.837C87.0006 45.673 81.193 39.8654 74.0289 39.8654C66.8649 39.8654 61.0573 45.673 61.0573 52.837C61.0573 60.0011 66.8649 65.8087 74.0289 65.8087Z" fill="url(#paint2_linear_1226_6846)"/>
<path d="M166.114 30.9325C172.727 30.9325 178.088 25.5716 178.088 18.9586C178.088 12.3456 172.727 6.98474 166.114 6.98474C159.501 6.98474 154.14 12.3456 154.14 18.9586C154.14 25.5716 159.501 30.9325 166.114 30.9325Z" fill="url(#paint3_linear_1226_6846)"/>
<path d="M135.134 48.8457H142.784C143.116 48.8457 143.401 49.1308 143.401 49.4634V57.1134C143.401 57.6836 142.736 57.9211 142.356 57.541C139.79 54.9752 137.272 52.4569 134.706 49.891C134.326 49.5109 134.611 48.8457 135.134 48.8457Z" fill="url(#paint4_linear_1226_6846)"/>
<path d="M146.157 55.2128H150.719C150.909 55.2128 151.099 55.4028 151.099 55.5929V60.1544C151.099 60.487 150.719 60.6295 150.481 60.4395C148.961 58.919 147.44 57.3985 145.92 55.878C145.635 55.6404 145.825 55.2128 146.157 55.2128Z" fill="url(#paint5_linear_1226_6846)"/>
<path d="M139.838 39.8654H150.339C150.814 39.8654 151.194 40.2455 151.194 40.7206V51.2215C151.194 51.9818 150.291 52.3619 149.721 51.8392C146.205 48.3231 142.736 44.8545 139.22 41.3383C138.697 40.7681 139.078 39.8654 139.838 39.8654Z" fill="url(#paint6_linear_1226_6846)"/>
<path d="M83.1994 222.609C83.1994 224.842 82.7718 226.696 81.964 228.264C81.1563 229.832 79.9209 230.972 78.3529 231.827C76.7848 232.635 74.8842 233.063 72.651 233.063C70.4178 233.063 68.5172 232.635 66.9967 231.827C65.4287 231.019 64.2408 229.832 63.433 228.264C62.6253 226.696 62.1976 224.842 62.1976 222.609V205.646L62.4352 205.361H64.6209C65.7613 205.361 66.6641 205.646 67.2818 206.264C67.8995 206.882 68.1846 207.832 68.1846 209.162V222.657C68.1846 224.51 68.5172 225.888 69.2299 226.838C69.9426 227.788 71.083 228.264 72.6985 228.264C74.314 228.264 75.4544 227.788 76.1671 226.838C76.8799 225.888 77.2125 224.51 77.2125 222.657V205.646C77.6876 205.551 78.2103 205.504 78.733 205.456C79.2556 205.409 79.7308 205.409 80.1584 205.409C80.5386 205.409 81.0137 205.409 81.6314 205.456C82.2491 205.504 82.7718 205.551 83.2469 205.646V222.609H83.1994Z" fill="#44403C"/>
<path d="M90.7544 212.631C91.8948 212.631 92.7025 213.011 93.2727 213.771C93.8429 214.532 94.128 215.577 94.128 216.86V232.445C93.7004 232.54 93.2252 232.588 92.7025 232.635C92.1799 232.683 91.6572 232.683 91.182 232.683C90.7069 232.683 90.1842 232.683 89.6615 232.635C89.1389 232.588 88.6637 232.54 88.2361 232.445V212.916L88.5212 212.631H90.7544V212.631ZM104.961 227.646C104.961 228.406 105.009 229.119 105.152 229.784C105.294 230.449 105.532 231.02 105.864 231.542C105.437 231.875 104.914 232.207 104.249 232.445C103.631 232.683 102.918 232.778 102.206 232.778C101.018 232.778 100.21 232.445 99.7348 231.827C99.2596 231.21 99.0696 230.307 99.0696 229.166V220.566C99.0696 219.616 98.927 218.903 98.6895 218.475C98.4519 218.048 97.9767 217.81 97.264 217.81C96.8364 217.81 96.3137 217.905 95.7435 218.143C95.1733 218.38 94.6031 218.761 94.0805 219.236C93.5103 219.758 93.0827 220.424 92.655 221.231V216.052C93.5578 215.149 94.5556 214.342 95.6485 213.581C96.7413 212.869 98.0242 212.489 99.4022 212.489C100.59 212.489 101.588 212.774 102.443 213.391C103.251 214.009 103.869 214.817 104.249 215.862C104.629 216.907 104.866 218.095 104.866 219.426V227.646H104.961Z" fill="#44403C"/>
<path d="M116.46 232.445C116.033 232.54 115.605 232.587 115.082 232.635C114.56 232.683 114.037 232.683 113.562 232.683C113.087 232.683 112.564 232.683 112.041 232.635C111.519 232.587 111.043 232.54 110.616 232.445V219.283C110.616 218.618 110.473 218.095 110.236 217.668C109.951 217.24 109.475 217.05 108.81 217.05H108.24C108.05 216.432 108.002 215.767 108.002 215.054C108.002 214.722 108.002 214.389 108.05 214.009C108.097 213.629 108.145 213.296 108.24 212.916C108.81 212.869 109.428 212.821 109.998 212.774C110.616 212.726 111.091 212.726 111.519 212.726H112.326C113.562 212.726 114.56 213.154 115.32 213.961C116.08 214.769 116.46 215.862 116.46 217.288V232.445ZM109.428 207.404C109.428 206.597 109.57 205.884 109.856 205.219C110.188 205.029 110.616 204.886 111.138 204.791C111.661 204.696 112.184 204.601 112.659 204.601C113.134 204.601 113.657 204.648 114.227 204.791C114.75 204.886 115.177 205.076 115.462 205.219C115.605 205.551 115.7 205.931 115.795 206.312C115.89 206.692 115.89 207.072 115.89 207.404C115.89 208.212 115.747 208.925 115.462 209.638C115.177 209.78 114.75 209.923 114.227 210.065C113.704 210.16 113.182 210.255 112.659 210.255C112.136 210.255 111.614 210.208 111.091 210.113C110.568 210.018 110.141 209.875 109.856 209.685C109.57 208.972 109.428 208.212 109.428 207.404Z" fill="#44403C"/>
<path d="M119.644 231.115C119.691 230.497 119.834 229.784 120.166 228.976C120.499 228.216 120.879 227.598 121.307 227.123C122.162 227.598 123.065 227.979 123.968 228.311C124.87 228.644 125.821 228.786 126.723 228.786C127.531 228.786 128.149 228.644 128.529 228.359C128.957 228.074 129.147 227.693 129.147 227.266C129.147 226.886 129.004 226.506 128.719 226.22C128.434 225.888 127.959 225.65 127.294 225.413L125.108 224.605C124.205 224.272 123.35 223.845 122.637 223.322C121.877 222.799 121.307 222.182 120.879 221.421C120.451 220.661 120.214 219.758 120.214 218.713C120.214 217.383 120.546 216.29 121.164 215.339C121.782 214.389 122.685 213.629 123.778 213.106C124.918 212.584 126.201 212.298 127.721 212.298C128.909 212.298 130.192 212.489 131.523 212.821C132.853 213.154 133.946 213.534 134.801 213.961C134.849 214.437 134.754 214.912 134.611 215.482C134.468 216.005 134.278 216.527 134.041 217.002C133.803 217.478 133.518 217.81 133.186 218.048C132.378 217.715 131.523 217.383 130.572 217.05C129.622 216.765 128.672 216.622 127.769 216.622C127.199 216.622 126.723 216.765 126.438 217.002C126.153 217.288 125.963 217.62 125.963 218C125.963 218.38 126.106 218.666 126.343 218.903C126.581 219.141 127.009 219.378 127.579 219.568L130.002 220.471C131.475 220.994 132.71 221.754 133.708 222.752C134.706 223.75 135.181 225.08 135.181 226.696C135.181 228.644 134.421 230.164 132.948 231.305C131.475 232.445 129.432 233.015 126.818 233.015C125.441 233.015 124.11 232.825 122.827 232.445C121.639 232.065 120.594 231.637 119.644 231.115Z" fill="#44403C"/>
<path d="M141.168 224.557V220.519H148.866V220.091C148.866 219.426 148.771 218.856 148.581 218.285C148.39 217.763 148.105 217.335 147.678 217.002C147.25 216.67 146.727 216.527 146.11 216.527C145.064 216.527 144.352 216.955 143.924 217.763C143.496 218.57 143.306 219.853 143.306 221.516V223.274C143.306 224.225 143.401 225.08 143.544 225.888C143.734 226.696 144.067 227.313 144.589 227.836C145.112 228.311 145.92 228.549 147.012 228.549C147.915 228.549 148.771 228.406 149.673 228.169C150.529 227.931 151.384 227.646 152.192 227.313C152.619 227.741 152.952 228.311 153.237 228.929C153.522 229.594 153.665 230.212 153.76 230.782C152.762 231.495 151.621 232.065 150.244 232.445C148.866 232.825 147.488 233.015 146.11 233.015C144.399 233.015 143.021 232.73 141.881 232.16C140.74 231.59 139.885 230.829 139.22 229.879C138.555 228.929 138.127 227.836 137.842 226.601C137.557 225.365 137.462 224.13 137.462 222.799C137.462 220.804 137.747 219.046 138.365 217.478C138.982 215.91 139.885 214.627 141.168 213.724C142.451 212.774 144.114 212.346 146.157 212.346C147.868 212.346 149.341 212.726 150.576 213.439C151.764 214.152 152.714 215.149 153.332 216.432C153.95 217.668 154.282 219.093 154.282 220.709C154.282 221.564 154.235 222.229 154.187 222.799C154.092 223.37 153.997 223.94 153.807 224.605H141.168V224.557Z" fill="#44403C"/>
<path d="M166.589 228.169C166.921 229.071 167.064 229.974 167.064 230.972C167.064 231.21 167.064 231.4 167.016 231.637C167.016 231.875 166.969 232.065 166.921 232.255C166.351 232.35 165.686 232.445 164.973 232.492C164.261 232.588 163.548 232.588 162.835 232.588C161.125 232.588 159.889 232.16 159.176 231.305C158.464 230.449 158.084 229.119 158.084 227.313V203.841L158.369 203.556H160.602C161.742 203.556 162.598 203.841 163.073 204.363C163.548 204.886 163.785 205.836 163.785 207.119V226.315C163.785 226.933 163.928 227.361 164.166 227.693C164.403 228.026 164.831 228.169 165.448 228.169H166.589V228.169Z" fill="#44403C"/>
<path d="M178.373 228.169C178.705 229.071 178.848 229.974 178.848 230.972C178.848 231.21 178.848 231.4 178.8 231.637C178.8 231.875 178.753 232.065 178.705 232.255C178.135 232.35 177.47 232.445 176.757 232.492C176.044 232.588 175.332 232.588 174.619 232.588C172.908 232.588 171.673 232.16 170.96 231.305C170.248 230.449 169.867 229.119 169.867 227.313V203.841L170.153 203.556H172.386C173.526 203.556 174.381 203.841 174.857 204.363C175.332 204.886 175.569 205.836 175.569 207.119V226.315C175.569 226.933 175.712 227.361 175.949 227.693C176.187 228.026 176.615 228.169 177.232 228.169H178.373V228.169Z" fill="#44403C"/>
<defs>
<linearGradient id="paint0_linear_1226_6846" x1="55.5063" y1="83.5078" x2="118.943" y2="193.383" gradientUnits="userSpaceOnUse">
<stop offset="2.07535e-07" stop-color="#ED2024"/>
<stop offset="1" stop-color="#F99D1C"/>
</linearGradient>
<linearGradient id="paint1_linear_1226_6846" x1="125.845" y1="60.9846" x2="183.947" y2="161.62" gradientUnits="userSpaceOnUse">
<stop offset="2.07535e-07" stop-color="#ED2024"/>
<stop offset="1" stop-color="#F99D1C"/>
</linearGradient>
<linearGradient id="paint2_linear_1226_6846" x1="67.5261" y1="41.6103" x2="80.5097" y2="64.0984" gradientUnits="userSpaceOnUse">
<stop offset="2.07535e-07" stop-color="#ED2024"/>
<stop offset="1" stop-color="#F99D1C"/>
</linearGradient>
<linearGradient id="paint3_linear_1226_6846" x1="160.101" y1="8.57422" x2="172.098" y2="29.3537" gradientUnits="userSpaceOnUse">
<stop offset="2.07535e-07" stop-color="#ED2024"/>
<stop offset="1" stop-color="#F99D1C"/>
</linearGradient>
<linearGradient id="paint4_linear_1226_6846" x1="137.703" y1="47.2594" x2="143.539" y2="57.3676" gradientUnits="userSpaceOnUse">
<stop offset="2.07535e-07" stop-color="#ED2024"/>
<stop offset="0.9931" stop-color="#F99D1C"/>
</linearGradient>
<linearGradient id="paint5_linear_1226_6846" x1="147.682" y1="54.277" x2="151.186" y2="60.3473" gradientUnits="userSpaceOnUse">
<stop offset="2.07535e-07" stop-color="#ED2024"/>
<stop offset="0.9931" stop-color="#F99D1C"/>
</linearGradient>
<linearGradient id="paint6_linear_1226_6846" x1="143.329" y1="37.7142" x2="151.349" y2="51.6054" gradientUnits="userSpaceOnUse">
<stop offset="2.07535e-07" stop-color="#ED2024"/>
<stop offset="0.9931" stop-color="#F99D1C"/>
</linearGradient>
</defs>
</svg>
